<?xml version="1.0" standalone="no"?>
<!DOCTYPE svg PUBLIC "-//W3C//DTD SVG 20010904//EN"
 "http://www.w3.org/TR/2001/REC-SVG-20010904/DTD/svg10.dtd">
<svg version="1.0" xmlns="http://www.w3.org/2000/svg"
 width="40px" height="40px" viewBox="0 0 301.000000 167.000000"
 preserveAspectRatio="xMidYMid meet">

<g transform="translate(0.000000,167.000000) scale(0.100000,-0.100000)"
fill="#000000" stroke="none">
<path d="M696 1578 c-16 -22 -10 -45 16 -65 7 -5 58 -27 113 -48 55 -21 103
-41 108 -45 4 -3 43 -197 86 -429 52 -283 82 -426 92 -432 8 -5 25 -9 38 -9
14 0 21 -5 19 -12 -54 -147 -62 -176 -49 -192 7 -9 26 -16 42 -16 34 0 34 -2
13 -35 -22 -34 -21 -115 2 -155 57 -95 205 -94 264 2 24 39 26 111 5 148 -8
14 -14 28 -15 33 0 4 77 7 170 7 94 0 170 -2 170 -3 0 -2 -6 -17 -14 -33 -8
-16 -15 -40 -16 -54 -5 -66 0 -83 44 -126 40 -41 47 -44 97 -44 64 0 110 24
139 72 24 39 26 111 5 148 -21 36 -19 40 20 40 24 0 37 6 45 19 13 25 13 27
-6 45 -14 14 -68 16 -445 16 l-430 0 7 23 c3 12 15 42 24 67 l18 45 407 3
c281 1 412 6 422 13 7 6 51 131 99 278 47 146 98 306 115 355 26 82 28 92 14
113 -9 13 -23 23 -33 23 -9 0 -168 7 -352 15 -662 28 -688 29 -705 15 -20 -16
-19 -54 1 -71 12 -10 138 -18 497 -34 418 -17 482 -22 480 -35 -2 -9 -42 -139
-91 -290 l-88 -275 -422 -3 c-232 -1 -422 0 -422 4 0 32 -153 820 -161 830
-13 16 -260 114 -287 114 -12 0 -28 -10 -36 -22z m662 -1308 c45 -42 15 -120
-46 -120 -44 0 -72 26 -72 66 0 65 71 98 118 54z m582 0 c42 -42 12 -120 -48
-120 -44 0 -72 26 -72 66 0 43 29 74 70 74 17 0 39 -9 50 -20z"/>
</g>
</svg>
