<?xml version="1.0" standalone="no"?>
<!DOCTYPE svg PUBLIC "-//W3C//DTD SVG 20010904//EN"
 "http://www.w3.org/TR/2001/REC-SVG-20010904/DTD/svg10.dtd">
<svg version="1.0" xmlns="http://www.w3.org/2000/svg"
 width="1600.000000pt" height="900.000000pt" viewBox="0 0 1600.000000 900.000000"
 preserveAspectRatio="xMidYMid meet">

<g transform="translate(0.000000,900.000000) scale(0.100000,-0.100000)"
fill="#000000" stroke="none">
<path d="M7845 7834 c-420 -33 -701 -91 -1010 -206 -87 -33 -304 -126 -320
-138 -5 -4 -44 -25 -85 -46 -227 -116 -517 -324 -703 -503 -318 -306 -504
-552 -692 -915 -251 -485 -368 -968 -369 -1526 0 -118 6 -260 12 -315 7 -55
15 -122 18 -150 23 -206 135 -624 218 -810 7 -16 28 -64 47 -105 80 -181 261
-483 378 -634 146 -186 258 -309 274 -299 6 3 7 1 4 -4 -19 -31 502 -471 527
-446 3 4 6 1 6 -4 0 -11 21 -25 167 -115 75 -46 298 -158 373 -188 30 -12 78
-31 105 -42 81 -32 243 -85 345 -112 674 -181 1416 -141 2065 112 122 48 164
66 269 119 61 31 125 63 141 71 44 23 261 160 325 206 182 131 456 378 443
399 -3 5 -1 7 4 4 22 -14 247 250 373 438 312 465 495 961 557 1508 22 201 22
531 -1 735 -42 384 -156 774 -318 1097 -105 208 -141 269 -285 478 -167 242
-490 567 -753 759 -95 69 -273 180 -370 231 -41 22 -84 45 -95 52 -22 13 -222
101 -295 130 -247 96 -565 172 -835 200 -153 16 -430 26 -520 19z m355 -385
c357 -136 630 -404 768 -755 33 -83 70 -234 77 -309 3 -38 8 -80 10 -92 4 -17
84 -61 398 -216 l392 -194 24 -99 c12 -54 30 -130 39 -167 16 -72 8 -62 154
-189 11 -9 54 -48 96 -85 42 -37 101 -90 132 -117 30 -27 140 -128 244 -225
104 -97 194 -175 200 -173 6 2 8 1 4 -3 -4 -4 24 -43 61 -86 61 -70 69 -85 75
-131 12 -103 13 -101 -41 -93 -101 14 -273 65 -342 99 -79 40 -79 40 -56 -47
20 -79 67 -168 101 -193 40 -28 163 -76 176 -68 7 4 8 2 4 -4 -4 -7 -1 -12 7
-12 7 0 37 -7 66 -16 l53 -15 -6 -42 c-12 -72 -55 -201 -87 -261 -23 -43 -45
-67 -83 -91 -76 -48 -177 -92 -285 -122 -86 -25 -113 -28 -256 -28 -136 0
-174 4 -255 24 -166 42 -266 87 -337 154 l-31 29 -82 -11 c-147 -20 -303 -77
-435 -159 -53 -33 -62 -34 -50 -5 5 10 7 22 6 26 -1 5 3 6 7 3 5 -3 18 4 28
15 69 77 253 181 376 213 l68 18 -27 47 c-14 25 -29 49 -33 54 -9 10 -159 -19
-255 -50 -117 -38 -254 -111 -238 -127 4 -4 0 -4 -9 -1 -9 4 -19 2 -23 -4 -8
-14 -25 -14 -25 -1 0 16 93 105 155 147 88 59 137 82 260 122 l110 36 2 69 c3
77 21 142 64 228 16 32 29 61 29 66 0 5 -51 42 -112 82 -62 40 -146 94 -185
121 l-72 49 -17 -32 c-43 -84 -112 -137 -196 -153 -90 -17 -256 53 -354 150
-73 73 -103 134 -144 298 -17 65 -34 126 -39 136 -8 12 -20 -7 -59 -89 -97
-205 -139 -383 -128 -537 3 -45 9 -88 12 -97 12 -32 -23 -15 -67 32 -86 92
-108 137 -147 301 -7 31 -11 23 -40 -95 -36 -146 -82 -407 -82 -470 0 -51 -10
-104 -20 -104 -11 0 -59 131 -80 218 -46 191 -48 343 -9 552 17 94 78 288 98
315 4 5 14 26 21 45 21 54 134 240 195 322 86 116 121 155 256 290 l128 128
-87 72 c-78 64 -212 158 -226 158 -3 0 -27 13 -53 28 -190 111 -440 146 -599
85 -30 -11 -13 36 29 81 52 54 134 94 220 106 63 10 201 -1 266 -20 19 -5 36
-8 38 -7 7 8 -132 80 -198 103 -326 111 -770 47 -1224 -178 -61 -30 -125 -63
-143 -74 -103 -59 -386 -299 -375 -318 3 -6 2 -8 -2 -4 -11 10 -186 -162 -178
-175 3 -6 1 -7 -4 -4 -6 4 -55 -40 -108 -98 -54 -58 -100 -104 -102 -101 -14
14 78 223 146 331 71 114 100 155 162 233 127 158 234 260 391 373 274 197
578 330 913 401 95 20 138 23 320 23 186 -1 220 -3 300 -24 133 -34 200 -58
300 -110 50 -25 95 -44 100 -43 6 2 7 1 3 -3 -4 -4 28 -33 71 -65 43 -33 108
-91 145 -130 37 -40 70 -69 73 -66 13 12 -16 224 -40 297 -62 186 -200 371
-359 481 -75 52 -61 63 32 27z m-535 -1351 c39 -13 95 -41 125 -60 55 -36 117
-94 109 -102 -2 -2 -42 7 -89 20 -226 66 -379 5 -476 -193 -38 -76 -39 -80
-39 -188 1 -98 3 -116 27 -168 33 -70 53 -98 137 -188 35 -38 62 -71 60 -73
-9 -9 -95 15 -169 46 -182 78 -311 209 -347 354 -14 57 -15 79 -5 146 20 140
112 289 226 368 108 74 294 90 441 38z m-895 -182 c0 -7 -16 -77 -35 -155 -46
-184 -73 -357 -81 -506 -6 -105 -3 -137 20 -255 33 -174 71 -284 151 -445 77
-155 178 -293 312 -428 93 -94 236 -216 313 -268 19 -14 60 -42 90 -65 52 -38
345 -224 354 -224 2 0 -1 21 -7 48 -15 72 -14 375 2 454 13 67 31 96 51 83 6
-3 9 -9 6 -13 -8 -14 15 -136 40 -218 33 -105 130 -299 209 -419 l60 -90 6
175 c12 320 107 746 170 758 15 3 17 -20 22 -215 6 -287 40 -471 127 -688 90
-226 181 -365 350 -535 104 -103 132 -138 162 -200 101 -206 65 -405 -120
-660 -114 -157 -380 -392 -612 -542 -184 -118 -187 -118 -118 -9 221 351 215
709 -20 1061 -71 106 -287 325 -402 409 -47 33 -90 65 -96 70 -7 6 -15 7 -18
4 -3 -4 -6 0 -6 7 0 7 -3 11 -6 8 -3 -4 2 -20 11 -37 30 -59 75 -256 95 -416
21 -177 36 -395 27 -395 -3 0 -11 19 -17 43 -20 77 -91 217 -133 259 -8 7 -16
19 -18 25 -17 50 -413 437 -476 466 -13 6 -23 14 -23 18 0 8 -195 163 -245
194 l-30 19 26 -30 c237 -268 351 -708 293 -1126 -8 -62 -19 -117 -23 -121 -4
-4 -11 33 -14 83 -14 195 -111 378 -332 630 -104 117 -334 337 -510 485 -32
28 -95 82 -138 120 -44 39 -93 80 -108 93 -56 46 -171 197 -238 316 -52 92
-109 258 -132 386 -15 84 -18 366 -6 478 8 71 8 73 -11 63 -25 -13 -94 -154
-120 -246 -40 -134 -71 -265 -87 -357 -27 -161 -37 -165 -54 -23 -47 375 -6
761 111 1054 78 194 223 403 349 504 27 21 46 44 42 49 -3 6 -1 8 4 5 6 -4 31
9 56 28 86 66 280 165 295 151 2 -3 -16 -51 -41 -108 -114 -257 -162 -455
-171 -706 -7 -205 34 -455 99 -608 28 -63 28 -63 3 71 -21 109 -15 375 11 510
68 359 228 664 478 913 82 81 103 95 103 68z m3255 -2327 c79 -11 228 -58 274
-87 53 -32 82 -67 96 -116 71 -238 -129 -634 -438 -867 -43 -32 -82 -57 -86
-55 -4 3 -6 54 -3 113 8 207 -27 369 -85 396 -19 8 -29 7 -51 -10 -43 -31 -56
-69 -54 -155 1 -43 -2 -78 -6 -78 -33 0 -137 110 -154 164 -13 40 -10 110 6
148 13 30 -31 9 -69 -33 -29 -32 -35 -47 -35 -84 0 -25 -3 -45 -6 -45 -13 0
-94 62 -118 91 -38 44 -55 81 -67 142 -9 44 -7 64 13 136 26 96 62 141 161
204 197 126 391 169 622 136z"/>
<path d="M9500 5524 c-178 -34 -338 -63 -380 -70 -40 -6 -42 -8 -20 -14 28 -9
647 -253 698 -277 19 -8 35 -13 37 -11 2 2 -31 40 -73 84 -42 45 -99 104 -125
133 l-48 51 10 57 c6 31 11 58 11 60 0 5 -31 1 -110 -13z"/>
</g>
</svg>
