<?xml version="1.0" standalone="no"?>
<!DOCTYPE svg PUBLIC "-//W3C//DTD SVG 20010904//EN"
 "http://www.w3.org/TR/2001/REC-SVG-20010904/DTD/svg10.dtd">
<svg version="1.0" xmlns="http://www.w3.org/2000/svg"
 width="399.000000pt" height="47.000000pt" viewBox="0 0 399.000000 47.000000"
 preserveAspectRatio="xMidYMid meet">

<g transform="translate(0.000000,47.000000) scale(0.100000,-0.100000)"
fill="#000000" stroke="none">
<path d="M2347 333 c-12 -11 -8 -23 8 -23 18 0 18 -16 1 -99 -8 -37 -21 -68
-30 -73 -9 -5 -16 -14 -16 -19 0 -15 93 -7 98 9 2 6 -4 12 -13 12 -13 0 -15 6
-10 33 8 37 38 67 67 67 19 0 20 -5 15 -47 -3 -27 -11 -50 -21 -55 -9 -5 -16
-14 -16 -19 0 -15 93 -7 98 9 2 6 -4 12 -13 12 -13 0 -15 8 -9 50 4 34 3 55
-6 65 -14 17 -53 20 -80 5 -15 -8 -19 -7 -16 2 3 7 7 28 10 46 5 31 4 32 -28
32 -18 0 -36 -3 -39 -7z"/>
<path d="M3047 334 c-11 -12 3 -24 29 -24 28 0 27 2 13 -76 -16 -90 -17 -93
-51 -96 -17 -2 -33 -9 -36 -16 -3 -10 16 -12 84 -10 59 2 89 7 92 16 2 8 -8
12 -33 12 l-36 0 7 38 c3 20 12 65 19 100 l13 62 -48 0 c-25 0 -50 -3 -53 -6z"/>
<path d="M1728 302 c-7 -17 -20 -33 -30 -35 -22 -6 -24 -27 -2 -27 13 0 14 -9
9 -53 -5 -42 -4 -56 9 -66 31 -26 154 5 127 32 -5 5 -17 5 -29 -2 -11 -6 -32
-11 -46 -11 -22 0 -26 5 -26 28 0 60 9 71 58 74 63 4 69 28 7 28 -44 0 -46 1
-43 27 4 38 -21 41 -34 5z"/>
<path d="M127 313 c-15 -14 -5 -23 27 -23 l33 0 -15 -74 c-14 -72 -16 -75 -45
-78 -17 -2 -32 -9 -35 -16 -3 -10 15 -12 79 -10 55 2 84 7 87 16 2 8 -7 12
-27 12 -35 0 -35 0 -19 86 11 60 13 63 41 66 17 2 32 9 35 16 3 9 -17 12 -75
12 -44 0 -83 -3 -86 -7z"/>
<path d="M324 258 c-4 -6 -1 -14 6 -18 17 -10 3 -100 -16 -100 -8 0 -14 -7
-14 -15 0 -11 11 -15 39 -15 41 0 63 16 41 30 -21 13 -3 79 25 92 40 18 57 4
49 -39 -3 -21 -13 -45 -20 -54 -22 -25 -17 -30 28 -27 39 3 69 28 33 28 -11 0
-15 6 -11 18 27 95 15 110 -84 110 -38 0 -73 -4 -76 -10z"/>
<path d="M547 263 c-12 -11 -8 -23 9 -23 10 0 14 -6 10 -17 -2 -10 -7 -32 -11
-50 -3 -17 -13 -34 -21 -37 -29 -11 -12 -26 30 -26 48 0 67 13 40 28 -12 7
-14 17 -9 44 7 39 42 65 71 54 13 -5 15 -14 10 -49 -4 -23 -14 -45 -21 -50
-27 -15 -16 -27 24 -27 41 0 63 16 41 30 -9 5 -10 22 -5 58 6 44 4 52 -14 61
-26 14 -64 14 -79 -1 -9 -9 -12 -9 -12 0 0 13 -52 17 -63 5z"/>
<path d="M823 255 c-29 -12 -63 -58 -63 -85 0 -23 49 -60 80 -60 58 0 120 48
120 93 0 28 -45 67 -77 67 -15 -1 -42 -7 -60 -15z m82 -28 c42 -32 -12 -97
-69 -83 -38 9 -44 45 -12 73 31 26 54 29 81 10z"/>
<path d="M987 263 c-12 -11 -8 -20 11 -25 14 -4 22 -22 32 -67 11 -53 16 -61
35 -61 17 0 34 17 64 64 23 35 51 66 61 69 39 10 20 27 -29 27 -52 0 -73 -12
-46 -27 13 -7 12 -13 -8 -41 -28 -40 -34 -40 -42 -1 -6 24 -3 34 9 41 9 5 16
13 16 18 0 11 -93 14 -103 3z"/>
<path d="M1263 263 c-28 -11 -11 -23 32 -23 63 0 62 -26 -2 -33 -35 -4 -53
-12 -71 -32 -21 -25 -22 -29 -7 -45 14 -15 31 -18 97 -17 55 1 83 6 86 15 2 6
-4 12 -13 12 -13 0 -15 8 -9 50 8 63 -4 80 -60 79 -22 0 -47 -3 -53 -6z m65
-95 c-6 -18 -52 -32 -74 -24 -18 7 -18 8 0 22 25 18 79 19 74 2z"/>
<path d="M1933 250 c-84 -51 -65 -140 31 -140 51 0 96 14 96 30 0 7 -19 9 -58
4 -46 -5 -60 -3 -71 10 -12 14 -6 16 62 16 82 0 95 9 77 54 -18 48 -82 60
-137 26z m85 -22 c22 -22 13 -28 -40 -28 -50 0 -51 0 -33 20 20 22 55 26 73 8z"/>
<path d="M2168 254 c-34 -18 -62 -69 -54 -99 12 -47 122 -59 167 -19 27 24 8
41 -22 20 -44 -30 -109 -16 -109 24 0 47 96 82 107 40 7 -28 32 -25 43 6 12
31 4 50 -15 34 -9 -8 -15 -8 -20 0 -9 15 -65 12 -97 -6z"/>
<path d="M2564 258 c-4 -6 -1 -14 6 -18 17 -10 3 -100 -16 -100 -8 0 -14 -7
-14 -15 0 -11 11 -15 39 -15 41 0 63 16 41 30 -21 13 -3 79 25 92 40 18 57 4
49 -39 -3 -21 -13 -45 -20 -54 -22 -25 -17 -30 28 -27 39 3 69 28 33 28 -11 0
-15 6 -11 18 27 95 15 110 -84 110 -38 0 -73 -4 -76 -10z"/>
<path d="M2844 260 c-50 -20 -83 -102 -51 -128 63 -50 177 -4 177 72 0 56 -61
83 -126 56z m74 -32 c19 -19 14 -55 -10 -72 -43 -30 -88 -15 -88 30 0 41 69
71 98 42z"/>
<path d="M3294 260 c-50 -20 -83 -102 -51 -128 60 -48 177 -4 177 68 0 57 -61
86 -126 60z m74 -32 c19 -19 14 -55 -10 -72 -43 -30 -88 -15 -88 30 0 41 69
71 98 42z"/>
<path d="M3497 254 c-75 -40 -58 -144 23 -144 14 0 31 5 38 12 9 9 12 7 12 -9
0 -28 -18 -41 -64 -45 -59 -5 -59 -28 -1 -28 68 0 98 34 115 127 13 72 23 84
62 75 16 -3 48 -87 48 -124 0 -20 -30 -46 -59 -50 -14 -1 -26 -9 -29 -15 -3
-10 13 -13 57 -13 57 0 87 14 62 29 -13 8 101 171 119 171 6 0 10 7 10 15 0
11 -11 15 -39 15 -41 0 -63 -16 -41 -30 9 -6 6 -17 -16 -45 l-28 -37 -13 38
c-12 33 -11 39 2 47 35 19 8 26 -108 25 -85 0 -131 -5 -150 -14z m81 -26 c19
-19 14 -42 -12 -67 -35 -33 -76 -23 -76 19 0 45 58 78 88 48z"/>
</g>
</svg>
