<?xml version="1.0" standalone="no"?>
<!DOCTYPE svg PUBLIC "-//W3C//DTD SVG 20010904//EN"
 "http://www.w3.org/TR/2001/REC-SVG-20010904/DTD/svg10.dtd">
<svg version="1.0" xmlns="http://www.w3.org/2000/svg"
 width="227.000000pt" height="67.000000pt" viewBox="0 0 227.000000 67.000000"
 preserveAspectRatio="xMidYMid meet">

<g transform="translate(0.000000,67.000000) scale(0.100000,-0.100000)"
fill="#000000" stroke="none">
<path d="M179 343 c-23 -71 -44 -134 -47 -141 -2 -7 4 -12 16 -12 16 0 26 15
46 73 l26 72 -4 -57 c-6 -74 9 -76 47 -7 16 28 31 49 33 46 2 -2 -5 -30 -16
-62 -24 -70 -24 -65 -1 -65 16 0 27 23 62 128 23 70 44 133 47 140 2 7 -4 12
-14 12 -12 0 -36 -27 -68 -75 -27 -41 -50 -75 -52 -75 -2 0 -1 34 3 75 6 71 5
75 -15 75 -17 0 -27 -19 -63 -127z"/>
<path d="M425 458 c-18 -48 -85 -254 -85 -261 0 -4 26 -7 57 -5 46 2 59 7 61
21 3 13 -4 17 -32 17 l-35 0 16 45 c14 41 18 45 48 45 24 0 34 5 38 20 4 17 0
20 -24 20 -31 0 -34 6 -19 44 7 19 17 25 47 28 27 2 39 8 41 21 3 14 -5 17
-53 17 -35 0 -57 -5 -60 -12z"/>
<path d="M569 443 c-6 -16 -29 -79 -50 -141 -37 -109 -37 -113 -17 -110 16 2
26 18 42 65 27 81 34 85 28 18 -6 -71 8 -71 48 0 17 30 33 55 35 55 2 0 -7
-32 -20 -71 -24 -70 -24 -70 -3 -67 17 2 29 28 69 141 45 127 47 137 29 137
-14 0 -35 -24 -70 -77 l-50 -78 0 78 c0 62 -3 77 -15 77 -9 0 -20 -12 -26 -27z"/>
<path d="M783 458 c-13 -17 -83 -228 -83 -251 0 -14 9 -17 59 -17 35 0 63 5
69 13 16 20 93 248 86 258 -8 14 -120 11 -131 -3z m53 -125 c-32 -95 -34 -98
-64 -101 l-32 -3 19 48 c10 26 26 72 35 101 16 47 21 52 46 52 l29 0 -33 -97z"/>
<path d="M955 458 c-17 -46 -85 -254 -85 -260 0 -4 9 -8 19 -8 16 0 27 22 58
118 37 110 41 117 68 120 22 3 27 0 21 -13 -3 -9 -9 -28 -12 -41 -4 -17 -13
-24 -30 -24 -23 0 -24 -2 -24 -80 0 -73 2 -80 20 -80 18 0 20 7 20 69 0 60 2
69 20 74 20 5 46 53 57 108 l6 29 -67 0 c-44 0 -68 -4 -71 -12z"/>
<path d="M1120 387 c0 -57 -6 -102 -20 -141 l-19 -57 21 3 c16 2 28 20 48 69
14 36 38 81 52 100 13 19 35 51 47 72 22 36 22 37 3 37 -14 0 -32 -18 -56 -57
l-35 -58 -1 58 c0 50 -2 57 -20 57 -18 0 -20 -7 -20 -83z"/>
<path d="M1332 344 c-24 -69 -46 -133 -49 -141 -4 -11 0 -14 17 -11 18 2 27
14 39 50 22 63 31 69 31 20 0 -53 8 -72 31 -72 18 0 19 5 13 74 l-7 73 53 67
c49 62 50 66 28 66 -18 0 -35 -15 -66 -57 -48 -65 -50 -64 -22 7 l20 50 -23 0
c-19 0 -27 -15 -65 -126z"/>
<path d="M1535 458 c-100 -285 -96 -268 -72 -268 20 0 28 15 66 128 23 70 45
133 48 140 3 7 -4 12 -16 12 -12 0 -24 -6 -26 -12z"/>
<path d="M1572 344 c-24 -69 -46 -133 -49 -141 -4 -11 0 -14 17 -11 19 2 28
17 51 83 l27 80 1 -51 c3 -160 31 -151 93 29 46 132 47 138 26 135 -17 -2 -27
-19 -49 -78 l-27 -75 -7 78 c-6 62 -11 77 -24 77 -12 0 -28 -34 -59 -126z"/>
<path d="M1793 458 c-13 -17 -83 -228 -83 -251 0 -14 9 -17 59 -17 35 0 62 5
68 13 5 6 19 40 30 75 l21 62 -38 0 c-29 0 -39 -4 -43 -20 -3 -13 0 -20 9 -20
17 0 17 1 3 -39 -9 -25 -16 -31 -40 -31 l-29 0 19 48 c10 26 26 71 35 100 15
44 21 52 43 52 22 0 24 -3 19 -25 -5 -21 -3 -25 14 -25 21 0 40 33 40 71 0 17
-7 19 -59 19 -35 0 -63 -5 -68 -12z"/>
<path d="M1965 447 c-30 -46 -29 -79 4 -124 26 -35 29 -47 21 -68 -7 -18 -17
-25 -35 -25 -28 0 -29 3 -15 31 9 16 7 19 -13 19 -19 0 -26 -8 -35 -39 -7 -21
-12 -41 -12 -45 0 -3 27 -6 60 -6 51 0 62 3 75 23 30 47 29 82 -3 129 -35 51
-30 88 12 88 23 0 25 -2 16 -25 -8 -22 -7 -25 14 -25 17 0 25 8 34 37 6 20 9
40 6 45 -3 4 -30 8 -59 8 -46 0 -57 -4 -70 -23z"/>
</g>
</svg>
