<?xml version="1.0" standalone="no"?>
<!DOCTYPE svg PUBLIC "-//W3C//DTD SVG 20010904//EN"
 "http://www.w3.org/TR/2001/REC-SVG-20010904/DTD/svg10.dtd">
<svg version="1.0" xmlns="http://www.w3.org/2000/svg"
 width="225.000000pt" height="225.000000pt" viewBox="0 0 225.000000 225.000000"
 preserveAspectRatio="xMidYMid meet">

<g transform="translate(0.000000,225.000000) scale(0.100000,-0.100000)"
fill="#000000" stroke="none">
<path d="M975 2239 c-161 -20 -334 -87 -480 -184 -111 -73 -264 -235 -332
-350 -221 -372 -213 -833 21 -1194 59 -92 181 -219 280 -293 384 -286 938
-286 1322 0 365 272 530 710 434 1152 -48 221 -150 401 -322 566 -250 239
-575 346 -923 303z m380 -224 c321 -81 577 -338 662 -663 36 -138 36 -316 0
-454 -116 -445 -540 -739 -992 -689 -382 43 -694 315 -792 689 -20 79 -25 121
-25 227 0 152 25 269 86 398 123 259 389 462 661 506 39 6 81 13 95 15 53 9
217 -6 305 -29z"/>
<path d="M474 1216 c-69 -30 -85 -103 -35 -158 l29 -33 650 0 c645 0 651 0
679 21 60 45 51 132 -17 166 -32 17 -84 18 -655 18 -500 -1 -626 -3 -651 -14z"/>
</g>
</svg>
