<?xml version="1.0" standalone="no"?>
<!DOCTYPE svg PUBLIC "-//W3C//DTD SVG 20010904//EN"
 "http://www.w3.org/TR/2001/REC-SVG-20010904/DTD/svg10.dtd">
<svg version="1.0" xmlns="http://www.w3.org/2000/svg"
 width="612.000000pt" height="408.000000pt" viewBox="0 0 612.000000 408.000000"
 preserveAspectRatio="xMidYMid meet">

<g transform="translate(0.000000,408.000000) scale(0.100000,-0.100000)"
fill="#000000" stroke="none">
<path d="M98 4073 c7 -3 16 -2 19 1 4 3 -2 6 -13 5 -11 0 -14 -3 -6 -6z"/>
<path d="M811 4064 c7 -8 25 -22 39 -29 30 -16 50 -5 50 27 0 15 -9 18 -51 18
-46 0 -50 -2 -38 -16z"/>
<path d="M4760 4071 c0 -5 7 -12 16 -15 22 -9 24 -8 24 9 0 8 -9 15 -20 15
-11 0 -20 -4 -20 -9z"/>
<path d="M5383 4045 c-18 -27 -23 -49 -23 -97 0 -61 1 -64 37 -88 34 -23 45
-25 147 -24 61 0 131 6 156 14 31 8 105 12 233 11 l187 -2 0 111 0 110 -314 0
c-199 0 -317 -4 -321 -10 -3 -5 -15 -10 -26 -10 -10 0 -19 5 -19 10 0 23 -37
7 -57 -25z m697 -5 c0 -6 -33 -10 -80 -10 -47 0 -80 4 -80 10 0 6 33 10 80 10
47 0 80 -4 80 -10z"/>
<path d="M169 3864 c-9 -11 -9 -18 -2 -22 15 -10 19 -73 6 -96 -7 -13 -7 -30
3 -61 8 -29 10 -55 3 -81 -4 -22 -9 -53 -9 -71 0 -37 35 -125 56 -136 8 -4 14
-15 14 -22 0 -8 5 -15 10 -15 6 0 10 -7 10 -15 0 -8 4 -15 9 -15 20 0 30 105
10 112 -7 2 -7 47 1 151 14 169 10 264 -11 278 -23 14 -85 10 -100 -7z"/>
<path d="M4178 2443 c-10 -3 -18 -8 -18 -12 0 -8 -23 -13 -125 -27 -22 -3 -50
-10 -62 -16 -11 -6 -27 -8 -35 -6 -18 6 -37 -21 -38 -53 0 -25 24 -48 83 -78
31 -17 32 4 -13 -231 -16 -80 -47 -246 -69 -370 -45 -243 -47 -254 -91 -470
-17 -80 -35 -168 -40 -195 -9 -46 -8 -72 6 -142 2 -13 12 -23 21 -23 15 0 15
-2 -2 -14 -18 -13 -18 -13 1 -24 14 -8 15 -12 4 -12 -13 0 -13 -1 0 -10 10 -6
11 -10 3 -10 -7 0 -13 -4 -13 -10 0 -5 8 -10 18 -10 31 0 112 -34 112 -47 0
-7 5 -13 12 -13 6 0 9 -3 5 -6 -10 -10 45 -64 65 -64 19 0 36 -26 24 -37 -7
-8 -177 -6 -238 3 -33 5 -57 2 -80 -9 -24 -11 -46 -13 -81 -8 -49 8 -73 -3
-59 -26 5 -7 141 -31 327 -57 492 -70 536 -76 595 -86 31 -6 103 -13 161 -16
85 -6 117 -3 165 11 100 29 101 32 11 27 l-87 -5 0 27 c0 24 3 26 43 26 45 0
112 18 542 145 143 42 283 83 310 90 28 7 57 16 67 20 11 4 17 1 20 -12 3 -16
6 -15 20 7 12 18 41 189 98 580 45 305 95 652 113 771 26 178 29 221 19 243
l-12 26 -947 2 c-522 0 -910 4 -863 7 47 4 90 9 95 13 6 4 12 22 13 41 2 28
-2 36 -25 47 -35 17 -34 17 -55 13z m-121 -129 c-3 -3 -12 -4 -19 -1 -8 3 -5
6 6 6 11 1 17 -2 13 -5z m1842 -70 c2 -2 -8 -79 -22 -171 -15 -93 -63 -406
-108 -698 -44 -291 -82 -531 -83 -532 -2 -2 -74 4 -162 12 -87 8 -500 46 -918
84 -417 39 -761 72 -764 76 -3 3 4 56 15 118 34 181 214 1090 220 1111 5 18
29 19 912 11 498 -4 908 -9 910 -11z m-2112 -1700 c-3 -3 -12 -4 -19 -1 -8 3
-5 6 6 6 11 1 17 -2 13 -5z"/>
<path d="M276 2318 c-23 -90 -38 -149 -46 -178 -14 -53 -12 -147 5 -180 8 -16
14 -51 13 -82 -1 -29 4 -84 11 -123 13 -66 13 -73 -7 -116 -34 -75 -72 -72
-190 15 l-62 46 0 -385 0 -385 168 1 c162 0 219 7 194 23 -17 10 -15 77 3 114
21 42 45 47 121 26 48 -13 70 -25 84 -45 24 -33 26 -72 4 -93 -14 -15 -9 -16
53 -16 47 0 63 3 53 10 -10 6 -14 24 -13 57 4 112 54 173 142 173 63 0 236
-44 311 -78 54 -26 182 -23 246 5 28 12 72 27 98 33 60 13 73 26 86 85 21 94
32 110 93 129 31 10 79 16 111 15 50 -2 60 1 86 26 17 16 30 37 30 46 0 10 4
21 10 24 17 11 4 67 -21 86 -21 16 -22 20 -9 29 35 25 53 31 67 25 16 -6 73
39 73 57 0 20 -41 50 -81 59 -59 14 -69 24 -69 75 0 35 4 44 18 45 56 2 73 6
84 17 11 11 9 16 -7 28 -11 8 -28 13 -39 10 -12 -3 -30 8 -55 33 -20 20 -48
44 -63 54 -27 17 -107 28 -139 20 -25 -7 -24 -38 1 -73 90 -126 75 -233 -38
-274 -45 -16 -58 -17 -96 -6 -52 14 -109 59 -130 102 -9 17 -16 56 -16 87 0
82 -20 107 -105 136 -38 13 -73 24 -77 25 -14 0 -76 -64 -92 -94 -13 -26 -13
-33 1 -70 9 -23 21 -46 27 -51 31 -29 74 -119 85 -179 7 -38 5 -54 -14 -95
-20 -42 -31 -53 -81 -77 -49 -23 -76 -29 -155 -32 -82 -4 -101 -1 -136 16 -42
22 -86 67 -130 133 -24 36 -25 45 -19 110 7 82 20 111 75 168 l41 42 -26 49
c-14 27 -27 64 -28 82 -2 18 -4 39 -5 46 0 6 -12 21 -25 33 -21 18 -31 38 -67
124 -4 11 -17 41 -27 67 -11 25 -17 50 -14 54 4 4 1 5 -7 2 -7 -2 -23 -21 -35
-42 -12 -21 -26 -39 -31 -39 -6 0 -16 -8 -23 -18 -9 -13 -25 -19 -52 -19 -33
0 -45 6 -76 40 -20 22 -41 37 -45 34 -5 -3 -13 6 -19 20 -10 28 -19 33 -24 14z
m204 -668 c0 -5 8 -10 17 -10 10 0 27 -10 38 -22 l21 -23 -20 -35 c-11 -19
-21 -37 -22 -38 -6 -8 -65 11 -79 25 -21 21 -19 69 5 93 22 22 40 26 40 10z
m-270 -441 c16 -28 4 -69 -18 -69 -10 0 -28 13 -39 29 -20 26 -20 29 -5 45 22
22 49 20 62 -5z m-13 -95 c-3 -3 -12 -4 -19 -1 -8 3 -5 6 6 6 11 1 17 -2 13
-5z m13 -24 c0 -5 7 -10 15 -10 21 0 15 -66 -10 -107 -18 -29 -25 -33 -63 -33
l-43 0 3 37 c2 28 8 39 22 41 27 6 49 30 42 47 -3 8 0 15 7 15 8 0 6 4 -3 10
-12 8 -11 10 8 10 12 0 22 -4 22 -10z"/>
<path d="M5996 2203 c-5 -11 -1 -22 10 -30 19 -14 74 -18 74 -5 0 6 -41 34
-71 50 -4 1 -10 -5 -13 -15z"/>
<path d="M2670 1732 c0 -4 -13 -13 -30 -19 -23 -9 -30 -18 -30 -38 0 -21 -8
-30 -41 -44 -44 -20 -99 -73 -99 -97 0 -8 0 -17 0 -21 -1 -7 82 -32 108 -33 7
0 26 14 42 30 16 17 34 30 39 30 11 0 19 28 19 65 1 35 14 80 30 98 14 15 13
17 -1 17 -10 0 -17 5 -17 10 0 6 -4 10 -10 10 -5 0 -10 -4 -10 -8z m-10 -37
c10 -12 10 -15 -4 -15 -9 0 -16 7 -16 15 0 8 2 15 4 15 2 0 9 -7 16 -15z m0
-90 c0 -3 -9 -5 -20 -5 -11 0 -20 7 -20 15 0 13 4 14 20 5 11 -6 20 -13 20
-15z"/>
<path d="M1724 1012 c-23 -9 -56 -29 -74 -43 l-32 -26 65 -6 c86 -8 107 -2
107 32 0 15 -6 34 -12 43 -12 15 -16 15 -54 0z"/>
<path d="M2428 662 l-17 -29 46 -2 c60 -2 70 -11 12 -11 -44 0 -45 -1 -44 -32
0 -39 7 -41 174 -58 80 -7 117 -8 126 0 9 8 14 6 18 -5 6 -15 36 -10 48 8 4 5
15 4 28 -2 11 -6 30 -15 41 -21 11 -5 39 -10 62 -10 36 0 266 -22 473 -46 63
-7 46 7 -43 37 -35 12 -62 23 -60 25 3 2 29 0 59 -5 77 -12 179 -13 179 -1 0
10 -25 18 -75 22 -24 2 -30 7 -28 25 3 24 10 23 -252 48 -88 9 -187 20 -220
25 -87 14 -94 13 -101 -16 -6 -23 -8 -24 -22 -10 -14 14 -17 13 -29 -2 -13
-15 -14 -14 -10 15 4 38 17 34 -188 58 -167 19 -158 20 -177 -13z m306 -63 c5
-5 6 -12 2 -16 -4 -4 -10 -2 -14 4 -4 6 -45 15 -92 21 l-85 11 90 -6 c50 -2
94 -9 99 -14z m113 -35 c-3 -3 -12 -4 -19 -1 -8 3 -5 6 6 6 11 1 17 -2 13 -5z"/>
<path d="M1852 623 c-6 -2 -10 -9 -6 -14 3 -5 -2 -9 -10 -9 -8 0 -18 5 -21 10
-10 16 -88 12 -113 -6 -12 -8 -22 -23 -22 -33 0 -9 -4 -21 -10 -27 -7 -7 3 -9
28 -7 36 3 36 3 -16 -18 -29 -11 -51 -23 -49 -26 3 -2 14 0 25 6 21 11 57 -5
119 -55 l26 -21 -55 -6 c-84 -10 -168 31 -138 68 6 8 9 19 5 26 -6 8 -10 8
-16 -2 -6 -10 -11 -7 -19 11 -10 25 -10 25 -5 -2 6 -31 -9 -37 -24 -10 -24 42
-27 43 -54 33 l-26 -10 15 -52 c9 -28 13 -62 10 -75 -5 -17 -2 -26 9 -30 8 -4
15 -10 15 -16 0 -14 51 -55 93 -74 20 -9 37 -22 37 -28 0 -11 132 -67 157 -66
6 0 13 -5 15 -11 2 -6 51 -12 123 -15 126 -4 153 -9 170 -29 15 -17 92 -37
144 -37 25 1 107 8 181 17 147 18 305 34 560 60 460 46 506 52 533 70 15 10
26 20 23 22 -2 3 -80 -3 -173 -11 -92 -9 -206 -18 -253 -20 -47 -2 -141 -8
-210 -14 -69 -6 -179 -13 -245 -16 -66 -2 -140 -11 -163 -19 -38 -13 -42 -13
-42 2 -1 14 -2 14 -14 -2 -8 -10 -39 -23 -71 -30 -52 -11 -58 -10 -71 8 -21
28 -17 60 12 94 14 17 23 35 19 41 -3 5 -1 10 4 10 6 0 11 -5 11 -11 0 -5 5
-7 10 -4 6 4 8 11 5 16 -4 5 15 9 42 10 26 0 72 4 101 8 35 5 52 4 52 -3 0 -7
3 -8 8 -1 10 14 62 15 62 1 0 -6 4 -5 9 3 8 13 38 17 134 20 20 1 37 5 37 9 0
13 -334 -2 -422 -18 -42 -8 -55 -6 -115 22 -67 30 -223 116 -233 128 -3 3 -23
17 -45 30 -22 14 -51 37 -63 52 -13 16 -31 28 -39 28 -9 0 -13 6 -9 15 5 15
-15 19 -42 8z m-42 -75 c0 -4 6 -8 14 -8 7 0 19 -7 26 -15 9 -10 9 -15 1 -15
-6 0 -11 4 -11 9 0 5 -10 12 -22 15 -13 3 -34 15 -48 26 l-25 20 33 -12 c17
-7 32 -16 32 -20z m125 -76 c-3 -3 -11 0 -18 7 -9 10 -8 11 6 5 10 -3 15 -9
12 -12z m40 -12 c3 -5 -1 -10 -9 -10 -9 0 -16 5 -16 10 0 6 4 10 9 10 6 0 13
-4 16 -10z m160 -82 c17 -10 26 -18 21 -18 -15 0 -153 68 -160 79 -7 11 90
-31 139 -61z m-184 -9 c19 -7 38 -15 42 -19 14 -12 26 -80 16 -86 -5 -3 -9 0
-9 5 0 6 -3 10 -7 9 -5 -1 -23 1 -41 5 -28 6 -32 10 -26 31 4 17 -1 30 -17 45
-27 25 -12 28 42 10z m274 -39 c17 -11 26 -20 22 -20 -11 0 -67 29 -67 35 0
10 16 4 45 -15z m62 -72 c-3 -8 -6 -5 -6 6 -1 11 2 17 5 13 3 -3 4 -12 1 -19z"/>
<path d="M1942 328 c2 -15 11 -23 30 -25 22 -3 26 0 22 12 -6 14 -34 35 -49
35 -4 0 -5 -10 -3 -22z"/>
<path d="M5475 587 c-60 -18 -101 -33 -90 -35 11 -2 70 13 130 32 137 44 108
45 -40 3z"/>
<path d="M3658 573 c7 -3 16 -2 19 1 4 3 -2 6 -13 5 -11 0 -14 -3 -6 -6z"/>
<path d="M1618 533 c6 -2 18 -2 25 0 6 3 1 5 -13 5 -14 0 -19 -2 -12 -5z"/>
<path d="M5212 507 c-56 -16 -100 -32 -98 -34 4 -5 217 55 225 63 9 9 -27 1
-127 -29z"/>
<path d="M5025 450 c-11 -5 -40 -14 -64 -20 -23 -6 -41 -13 -39 -15 6 -6 101
20 124 33 23 14 7 14 -21 2z"/>
<path d="M3190 389 c0 -4 11 -6 24 -5 13 0 22 4 20 8 -6 9 -44 6 -44 -3z"/>
<path d="M3100 379 c0 -5 5 -7 10 -4 6 3 10 8 10 11 0 2 -4 4 -10 4 -5 0 -10
-5 -10 -11z"/>
<path d="M3240 319 c-113 -10 -277 -23 -365 -28 -88 -6 -241 -16 -340 -22 -99
-6 -186 -16 -193 -22 -7 -6 -12 -22 -10 -36 4 -33 37 -42 45 -12 3 11 9 18 14
15 5 -3 6 -10 3 -16 -5 -8 -1 -9 12 -4 10 4 98 14 194 22 96 7 198 17 225 21
28 3 59 7 70 8 11 1 31 5 45 8 45 11 120 15 115 6 -6 -8 99 -1 125 8 30 12
134 25 223 28 31 1 60 5 64 8 3 4 20 7 37 7 41 0 76 10 76 21 0 13 -107 9
-340 -12z"/>
<path d="M2978 243 c12 -2 32 -2 45 0 12 2 2 4 -23 4 -25 0 -35 -2 -22 -4z"/>
</g>
</svg>
