<?xml version="1.0" standalone="no"?>
<!DOCTYPE svg PUBLIC "-//W3C//DTD SVG 20010904//EN"
 "http://www.w3.org/TR/2001/REC-SVG-20010904/DTD/svg10.dtd">
<svg version="1.0" xmlns="http://www.w3.org/2000/svg"
 width="225.000000pt" height="225.000000pt" viewBox="0 0 225.000000 225.000000"
 preserveAspectRatio="xMidYMid meet">

<g transform="translate(0.000000,225.000000) scale(0.100000,-0.100000)"
fill="#000000" stroke="none">
<path d="M975 2239 c-402 -51 -769 -347 -908 -734 -45 -125 -61 -228 -61 -380
1 -326 112 -586 346 -811 240 -230 553 -339 882 -305 262 26 475 124 664 305
260 249 383 586 343 935 -30 251 -128 464 -298 642 -257 270 -601 394 -968
348z m339 -245 c153 -32 307 -115 429 -233 361 -347 361 -923 2 -1270 -246
-237 -581 -315 -900 -210 -133 44 -234 108 -345 219 -155 155 -238 325 -258
530 -27 266 58 517 242 708 216 226 519 319 830 256z"/>
<path d="M931 1554 c-32 -27 -48 -76 -37 -118 3 -14 67 -88 142 -165 l136
-141 -30 -37 c-17 -21 -78 -85 -136 -143 -116 -115 -135 -148 -116 -205 17
-51 53 -75 114 -75 l51 0 192 197 c120 124 197 210 204 231 20 59 1 85 -204
290 l-193 192 -46 0 c-35 0 -54 -6 -77 -26z"/>
</g>
</svg>
