<?xml version="1.0" standalone="no"?>
<!DOCTYPE svg PUBLIC "-//W3C//DTD SVG 20010904//EN"
 "http://www.w3.org/TR/2001/REC-SVG-20010904/DTD/svg10.dtd">
<svg version="1.0" xmlns="http://www.w3.org/2000/svg"
 width="225.000000pt" height="225.000000pt" viewBox="0 0 225.000000 225.000000"
 preserveAspectRatio="xMidYMid meet">

<g transform="translate(0.000000,225.000000) scale(0.100000,-0.100000)"
fill="#000000" stroke="none">
<path d="M980 2239 c-394 -45 -763 -336 -905 -714 -105 -277 -94 -598 29 -868
103 -228 299 -427 527 -540 442 -217 967 -122 1309 239 207 218 304 464 304
769 -1 326 -112 586 -346 811 -249 239 -566 343 -918 303z m331 -244 c294 -60
561 -299 657 -588 104 -314 27 -656 -202 -895 -349 -365 -928 -368 -1277 -5
-344 357 -337 911 16 1252 222 213 507 297 806 236z"/>
<path d="M1003 1383 c-120 -124 -197 -210 -204 -231 -20 -59 -1 -85 204 -290
l193 -192 46 0 c80 0 133 68 114 144 -3 14 -67 88 -142 165 l-136 141 30 37
c17 21 78 85 136 143 116 115 135 148 116 205 -17 51 -53 75 -114 75 l-51 0
-192 -197z"/>
</g>
</svg>
